<svg xmlns="http://www.w3.org/2000/svg" width="1159" height="637" fill="none" viewBox="0 0 1159 637"><path stroke="#000" stroke-width=".957" d="M1003 119.157C1004.17 98.1524 1008.84 60.4412 1017.8 98.5414C1019.76 106.872 1016.63 77.5559 1029.48 76"/><path stroke="#000" stroke-width=".957" d="M258 611.899C277.531 605.71 313.486 596.942 281.877 618.242C274.965 622.9 300.585 609.935 306.433 621.088"/><path stroke="#000" stroke-width=".957" d="M803.057 341.826C822.917 346.86 858.094 358.356 820.006 359.801C811.678 360.117 840.283 362.6 839.376 375.16"/><path fill="#5086EC" d="M489.462 557.388L487.802 569.716L477.956 562.115L489.462 557.388Z"/><circle cx="882.5" cy="4.5" r="4.5" fill="#5086EC"/><circle cx="263" cy="140" r="5" fill="#57A45B"/><path fill="#58A55C" d="M5.3946 38L10.0665 46.0919H0.722739L5.3946 38Z"/><path fill="#D95040" d="M515.564 52.2941L529.994 45.0912L529.017 61.189L515.564 52.2941Z"/><path fill="#5086EC" d="M1152.46 234.388L1150.8 246.716L1140.96 239.115L1152.46 234.388Z"/><path fill="#D95040" d="M872.44 465.465L863.416 475.695L859.069 462.765L872.44 465.465Z"/><rect width="20" height="3.717" x="965" y="231" fill="#F2BD42" transform="rotate(15.6045 965 231)"/><rect width="20.374" height="2.832" fill="#5086EC" transform="matrix(0.510417 0.859927 0.859927 -0.510417 57 486.446)"/><path fill="#57A45B" d="M520.118 416.032L530.844 407.604L532.78 421.107L520.118 416.032Z"/><rect width="20.374" height="2.832" fill="#5086EC" transform="matrix(-0.346465 -0.938063 -0.938063 0.346465 692.716 290.112)"/><path fill="#57A45B" d="M826.118 628.032L836.844 619.604L838.78 633.107L826.118 628.032Z"/><rect width="20.374" height="2.832" fill="#5086EC" transform="matrix(-0.346465 -0.938063 -0.938063 0.346465 1062.72 597.112)"/><rect width="20.374" height="2.832" fill="#58A55C" transform="matrix(0.510417 0.859927 0.859927 -0.510417 1068 370.446)"/><rect width="28.094" height="4.386" x="290.769" y="12.589" stroke="#000" stroke-width=".957" transform="rotate(15.6045 290.769 12.5895)"/><rect width="11.043" height="3.043" x="90.613" y="226.387" stroke="#000" stroke-width=".957" transform="rotate(-19.9853 90.6132 226.387)"/><path fill="#57A45B" d="M795.44 132.465L786.416 142.695L782.069 129.765L795.44 132.465Z"/><circle cx="500.885" cy="225.885" r="5.885" fill="#5086EC"/><path fill="#F2BD42" d="M195.564 358.294L209.994 351.091L209.017 367.189L195.564 358.294Z"/><path fill="#F2BD42" d="M1131.56 513.294L1145.99 506.091L1145.02 522.189L1131.56 513.294Z"/><path fill="#F2BD42" d="M678.564 58.2941L692.994 51.0912L692.017 67.189L678.564 58.2941Z"/></svg>