<svg height="511pt" viewBox="-26 0 511 511.78485" width="511pt" xmlns="http://www.w3.org/2000/svg"><path d="m417.175781 409.394531c-61.5625 18.765625-128.367187 7.445313-180.304687-30.558593-51.941406-38.003907-82.949219-98.246094-83.691406-162.601563-.191407-77.113281 42.328124-147.988281 110.449218-184.125 6.945313-3.621094 10.449219-11.582031 8.429688-19.148437-1.777344-7.628907-8.601563-13.0117192-16.433594-12.960938h-.054688c-70.164062-.246094-137.316406 28.507812-185.554687 79.460938-48.238281 50.957031-73.277344 119.578124-69.191406 189.625 2.839843 68.316406 33.332031 132.542968 84.472656 177.929687 47.371094 41.636719 108.25 64.652344 171.316406 64.769531 5.066407 0 10.152344-.152344 15.214844-.457031 36.921875-2.324219 72.910156-12.601563 105.492187-30.125 20.90625-11.621094 40.011719-26.226563 56.707032-43.355469 5.53125-5.507812 6.621094-14.066406 2.640625-20.785156-3.976563-6.714844-12.007813-9.871094-19.492188-7.667969zm-47.945312 56.773438c-30.402344 16.359375-63.976563 25.953125-98.429688 28.125-63.703125 3.628906-126.277343-17.941407-174.203125-60.058594-47.683594-42.355469-76.101562-102.277344-78.726562-166-3.847656-65.390625 19.511718-129.464844 64.539062-177.042969 45.03125-47.574218 107.726563-74.414062 173.230469-74.164062-73.753906 39.152344-119.765625 115.921875-119.53125 199.421875.8125 69.6875 34.378906 134.929687 90.609375 176.101562 56.226562 41.175781 128.558594 53.484375 195.238281 33.222657-15.519531 15.953124-33.28125 29.5625-52.726562 40.394531zm0 0"/><path d="m285.488281 144.851562c23.523438 0 42.664063 22.964844 42.664063 51.199219 0 4.714844 3.820312 8.535157 8.535156 8.535157 4.710938 0 8.53125-3.820313 8.53125-8.535157 0-28.234375 19.144531-51.199219 42.667969-51.199219 4.714843 0 8.535156-3.820312 8.535156-8.535156 0-4.710937-3.820313-8.53125-8.535156-8.53125-23.523438 0-42.667969-22.96875-42.667969-51.199218 0-4.714844-3.820312-8.535157-8.53125-8.535157-4.714844 0-8.535156 3.820313-8.535156 8.535157 0 28.230468-19.140625 51.199218-42.664063 51.199218-4.714843 0-8.535156 3.820313-8.535156 8.53125 0 4.714844 3.820313 8.535156 8.535156 8.535156zm51.199219-33.132812c5.167969 10 12.855469 18.476562 22.304688 24.597656-9.449219 6.125-17.136719 14.601563-22.304688 24.601563-5.171875-10-12.859375-18.476563-22.304688-24.601563 9.445313-6.121094 17.132813-14.597656 22.304688-24.597656zm0 0"/><path d="m451.277344 225.917969c-17.476563 0-31.695313-17.226563-31.695313-38.398438 0-4.714843-3.820312-8.535156-8.53125-8.535156-4.714843 0-8.535156 3.820313-8.535156 8.535156 0 21.171875-14.214844 38.398438-31.695313 38.398438-4.710937 0-8.535156 3.820312-8.535156 8.535156 0 4.710937 3.824219 8.53125 8.535156 8.53125 17.480469 0 31.695313 17.226563 31.695313 38.402344 0 4.710937 3.820313 8.53125 8.535156 8.53125 4.710938 0 8.53125-3.820313 8.53125-8.53125 0-21.175781 14.21875-38.402344 31.695313-38.402344 4.714844 0 8.535156-3.820313 8.535156-8.53125 0-4.714844-3.820312-8.535156-8.535156-8.535156zm-40.226563 24.148437c-3.652343-6.113281-8.503906-11.425781-14.269531-15.613281 5.765625-4.1875 10.617188-9.5 14.269531-15.617187 3.648438 6.117187 8.503907 11.429687 14.265625 15.617187-5.761718 4.1875-10.617187 9.5-14.265625 15.613281zm0 0"/></svg>