<?xml version="1.0" encoding="utf-8"?>
<!-- Svg Vector Icons : http://www.onlinewebfonts.com/icon -->
<!DOCTYPE svg PUBLIC "-//W3C//DTD SVG 1.1//EN" "http://www.w3.org/Graphics/SVG/1.1/DTD/svg11.dtd">
<svg version="1.1" xmlns="http://www.w3.org/2000/svg" xmlns:xlink="http://www.w3.org/1999/xlink" x="0px" y="0px" viewBox="0 0 1000 1000" enable-background="new 0 0 1000 1000" xml:space="preserve">
<metadata> Svg Vector Icons : http://www.onlinewebfonts.com/icon </metadata>
<g><path d="M500,731.7c-127.8,0-231.7-103.9-231.7-231.7c0-127.8,103.9-231.7,231.7-231.7c127.8,0,231.7,103.9,231.7,231.7C731.7,627.8,627.8,731.7,500,731.7L500,731.7z M500,319.8c-99.3,0-180.2,80.8-180.2,180.2c0,99.3,80.8,180.2,180.2,180.2c99.3,0,180.2-80.8,180.2-180.2C680.2,400.7,599.3,319.8,500,319.8L500,319.8z"/><path d="M500,216.3c-14.2,0-25.8-11.6-25.8-25.8V35.8c0-14.2,11.6-25.8,25.8-25.8c14.2,0,25.8,11.6,25.8,25.8v154.7C525.8,204.8,514.2,216.3,500,216.3L500,216.3z"/><path d="M500,990c-14.2,0-25.8-11.5-25.8-25.8V809.5c0-14.2,11.6-25.8,25.8-25.8c14.2,0,25.8,11.6,25.8,25.8v154.7C525.8,978.5,514.2,990,500,990L500,990z"/><path d="M190.5,525.8H35.8C21.6,525.8,10,514.2,10,500c0-14.2,11.6-25.8,25.8-25.8h154.7c14.2,0,25.8,11.6,25.8,25.8C216.3,514.2,204.8,525.8,190.5,525.8L190.5,525.8z"/><path d="M964.2,525.8H809.5c-14.2,0-25.8-11.6-25.8-25.8c0-14.2,11.6-25.8,25.8-25.8h154.7c14.2,0,25.8,11.6,25.8,25.8C990,514.2,978.5,525.8,964.2,525.8L964.2,525.8z"/><path d="M242.1,267.9c-6.6,0-13.2-2.5-18.3-7.5L120.7,157.2c-10.1-10.1-10.1-26.4,0-36.5c10.1-10.1,26.4-10.1,36.5,0l103.2,103.2c10.1,10.1,10.1,26.4,0,36.5C255.3,265.4,248.7,267.9,242.1,267.9L242.1,267.9z"/><path d="M138.9,886.8c-6.6,0-13.2-2.5-18.3-7.5c-10.1-10.1-10.1-26.4,0-36.5l103.2-103.2c10.1-10.1,26.4-10.1,36.5,0c10.1,10.1,10.1,26.4,0,36.5L157.2,879.3C152.1,884.4,145.5,886.8,138.9,886.8L138.9,886.8z"/><path d="M861.1,886.8c-6.6,0-13.2-2.5-18.3-7.5L739.6,776.2c-10.1-10.1-10.1-26.4,0-36.5c10.1-10.1,26.4-10.1,36.5,0l103.2,103.2c10.1,10.1,10.1,26.4,0,36.5C874.2,884.4,867.6,886.8,861.1,886.8L861.1,886.8z"/><path d="M757.9,267.9c-6.6,0-13.2-2.5-18.3-7.5c-10.1-10.1-10.1-26.4,0-36.5l103.2-103.2c10.1-10.1,26.4-10.1,36.5,0c10.1,10.1,10.1,26.4,0,36.5L776.1,260.4C771,265.4,764.4,267.9,757.9,267.9L757.9,267.9z"/></g>
</svg>